# xmcd
#
# Track frame offsets:
# 150
# 14767
# 28197
# 40090
# 57995
# 77612
# 92207
# 106580
# 119947
# 139902
# 152737
# 165997
# 180755
# 198795
#
# Disc length: 2784 seconds
#
#
# Revision: 0
# Processed by: cddbd v1.5.1PL0 Copyright (c) Steve Scherf et al.
# Submitted via: FreeRIP 2.931 
#
DISCID=af0ade0e
DTITLE=Alice Gerrard - Pieces of my Heart
DYEAR=1900
DGENRE=Vocal
TTITLE0=Ruben and Ruby
TTITLE1=Belle ofthe Ball
TTITLE2=Jeweled Heart
TTITLE3=Light at the River
TTITLE4=Agate Hill
TTITLE5=Dying Ranger
TTITLE6=Rocky Road Blues
TTITLE7=Flame in my Heart
TTITLE8=Tehre Ain't No Ash Will Burn
TTITLE9=Whole Lot of Used To Be
TTITLE10=Love's Not the Answer Sometimes
TTITLE11=Names
TTITLE12=Life's Other Side Coming Down
TTITLE13=When I Grow Too Old To Dream
EXTD=
EXTT0=
EXTT1=
EXTT2=
EXTT3=
EXTT4=
EXTT5=
EXTT6=
EXTT7=
EXTT8=
EXTT9=
EXTT10=
EXTT11=
EXTT12=
EXTT13=
PLAYORDER=
